# xmcd CD database file
#
# Track frame offsets:
#	150
#	22065
#	38867
#	54090
#	65332
#	86567
#	103292
#	116565
#	134642
#	146790
#	164112
#	182115
#
# Disc length: 2693 seconds
#
# Revision: 3
# Processed by: cddbd v1.5.2PL0 Copyright (c) Steve Scherf et al.
# Submitted via: CDex 1.77
#
DISCID=b40a830c
DTITLE=Mina - ... Del mio meglio - N. 3
DYEAR=1975
DGENRE=Vocal
TTITLE0=E Poi
TTITLE1=La Pioggia Di Marzo (Aguas de Maro)
TTITLE2=Domenica Sera
TTITLE3=Bird Dog
TTITLE4=Distanze
TTITLE5=Amore Mio
TTITLE6=Non Gioco Pi
TTITLE7=Fa Qualcosa
TTITLE8=Mr. Blue
TTITLE9=La Scala Buia
TTITLE10=Mai Prima
TTITLE11=Amanti Di Valore
EXTD=YEAR: 1975
EXTT0=
EXTT1=
EXTT2=
EXTT3=
EXTT4=
EXTT5=
EXTT6=
EXTT7=
EXTT8=
EXTT9=
EXTT10=
EXTT11=
PLAYORDER=
